<?xml version="1.0" ?>
<!-- Uploaded to: SVG Repo, www.svgrepo.com, Generator: SVG Repo Mixer Tools -->
<svg width="800px" height="800px" viewBox="0 0 64 64" xmlns="http://www.w3.org/2000/svg">
<defs>
<style>.cls-1{fill:#f0f4f7;}.cls-2{fill:#efc89d;}.cls-3{fill:#748a95;}.cls-4{fill:#d0e1e8;}</style>
</defs>
<g id="Robot">
<path class="cls-1" d="M17.49,48.54a9.47,9.47,0,0,0-3.64,5.57A1.58,1.58,0,0,0,15.4,56H48.6a1.58,1.58,0,0,0,1.55-1.89,9.47,9.47,0,0,0-3.64-5.57Z" id="path216894"/>
<path class="cls-2" d="M26.92,41.22v1.63l-4.8,2.81L32,52.55l9.88-6.89-4.8-2.81V41.22Z" id="path213889"/>
<path class="cls-3" d="M12.59,30.52A4.58,4.58,0,0,1,8,25.93V10.29a2.3,2.3,0,0,1,4.59,0V23L14,26.76Z" id="rect10078-0"/>
<path class="cls-3" d="M51.41,30.52A4.58,4.58,0,0,0,56,25.93V10.29a2.3,2.3,0,0,0-4.59,0V23l-.9,3.76Z" id="path10672-7"/>
<path class="cls-4" d="M46.45,19.81h1.77A3.18,3.18,0,0,1,51.41,23v9.27a3.18,3.18,0,0,1-3.19,3.19H46.45l-2-7.82Z" id="path9751-3"/>
<path class="cls-4" d="M17.55,19.81H15.78A3.18,3.18,0,0,0,12.59,23v9.27a3.18,3.18,0,0,0,3.19,3.19h1.77l2-7.82Z" id="path12099-8"/>
<path class="cls-4" d="M24.17,14.05V12.28a3.19,3.19,0,0,1,3.19-3.19h9.28a3.19,3.19,0,0,1,3.19,3.19v1.77l-7.83,2Z" id="path19466-1"/>
<path class="cls-1" d="M22,14.05a4.47,4.47,0,0,0-4.48,4.48V36.74A4.47,4.47,0,0,0,22,41.22h2.14L32,37.79l7.82,3.43H42a4.47,4.47,0,0,0,4.48-4.48V18.53A4.47,4.47,0,0,0,42,14.05Z" id="rect8999-4"/>
<path class="cls-3" d="M30.3,24.76a4.14,4.14,0,1,1-4.13-4.13A4.13,4.13,0,0,1,30.3,24.76Z" id="path12516-6"/>
<path class="cls-3" d="M24.17,41.22v-5a1.66,1.66,0,0,1,1.67-1.66H38.16a1.66,1.66,0,0,1,1.67,1.66v5Z" id="path12631-8"/>
<path class="cls-3" d="M42,24.76a4.14,4.14,0,1,1-4.14-4.13A4.13,4.13,0,0,1,42,24.76Z" id="circle13676-8"/>
<path class="cls-1" d="M22.12,45.66l-2.8,1.63a16.85,16.85,0,0,0-1.83,1.25h0l12,3.58a8.82,8.82,0,0,0,5,0l12-3.58h0a16.85,16.85,0,0,0-1.83-1.25l-2.8-1.63-9.88,3Z" id="path15405-3"/>
<path class="cls-3" d="M22.12,45.66l-2.8,1.63a16.85,16.85,0,0,0-1.83,1.25h0l12,3.58a8.82,8.82,0,0,0,5,0l12-3.58h0a16.85,16.85,0,0,0-1.83-1.25l-2.8-1.63-9.88,3Z" id="path216805"/>
<path class="cls-1" d="M26.17,23.76a1,1,0,1,0,1,1A1,1,0,0,0,26.17,23.76Z" id="path14001"/>
<path class="cls-1" d="M37.83,23.76a1,1,0,1,0,1,1A1,1,0,0,0,37.83,23.76Z" id="path14146"/>
</g>
</svg>